<?xml version="1.0" encoding="utf-8"?>
<!-- Generator: Adobe Illustrator 27.7.0, SVG Export Plug-In . SVG Version: 6.00 Build 0)  -->
<svg version="1.1" id="レイヤー_1" xmlns="http://www.w3.org/2000/svg" xmlns:xlink="http://www.w3.org/1999/xlink" x="0px"
	 y="0px" viewBox="0 0 81.9 81.03" style="enable-background:new 0 0 81.9 81.03;" xml:space="preserve">
<style type="text/css">
	.st0{display:none;}
	.st1{display:inline;fill:#00A469;}
	.st2{fill:none;}
	.st3{fill:#000000;}
</style>
<g class="st0">
	<path class="st1" d="M30.64,50.2c-0.88-0.49-1.2-1.61-0.7-2.48c2.3-4.11,3.85-9.55,3.84-15.08c-0.01-6.91-1.93-13-8.36-18.88
		c-0.66-0.56-0.94-1.71-0.51-2.47c0.42-0.77,1.61-1.11,2.44-0.84c6.21,2,11.29,6.91,15.59,13.02c4.3,6.12,7.55,13.49,9.31,20.66
		c0.24,0.98-0.36,1.96-1.33,2.19c-0.98,0.26-1.97-0.35-2.21-1.32c-1.64-6.72-4.74-13.73-8.74-19.44c-1.76-2.51-3.59-4.48-5.64-6.34
		c2.26,4.34,3.11,8.84,3.11,13.43c0,6.21-1.7,12.17-4.31,16.85c-0.33,0.59-0.96,0.93-1.6,0.93C31.22,50.43,30.92,50.35,30.64,50.2"
		/>
	<path class="st1" d="M31.16,44.17c-7.13,0-12.91,5.94-12.91,13.26c0,7.31,5.78,13.25,12.91,13.25s12.9-5.94,12.9-13.25
		C44.06,50.11,38.28,44.17,31.16,44.17 M26.67,57c-1.55,0-2.81-1.28-2.81-2.85c0-1.57,1.26-2.85,2.81-2.85
		c1.55,0,2.81,1.27,2.81,2.85C29.48,55.73,28.22,57,26.67,57"/>
	<path class="st1" d="M50.74,42.34c-3.54,0-6.75,1.47-9.08,3.84c1.06,0.99,1.97,2.13,2.72,3.38c0.31-1.22,1.41-2.13,2.71-2.13
		c1.56,0,2.82,1.28,2.82,2.85c0,1.57-1.26,2.85-2.82,2.85c-0.46,0-0.9-0.12-1.29-0.32c0.42,1.37,0.65,2.83,0.65,4.34
		c0,3.47-1.19,6.68-3.2,9.24c2.11,1.54,4.7,2.45,7.49,2.45c7.13,0,12.91-5.94,12.91-13.25C63.65,48.28,57.87,42.34,50.74,42.34"/>
</g>
<rect class="st2" width="81.03" height="81.03"/>
<g>
	<g>
		<g>
			<path class="st3" d="M40.95,5.7C21.72,5.7,6.13,21.29,6.13,40.52c0,19.24,15.59,34.82,34.82,34.82
				c19.23,0,34.82-15.59,34.82-34.82C75.77,21.29,60.18,5.7,40.95,5.7z M40.95,69.7c-16.12,0-29.19-13.06-29.19-29.18
				c0-16.12,13.07-29.18,29.19-29.18c16.12,0,29.18,13.07,29.18,29.18C70.13,56.64,57.07,69.7,40.95,69.7z"/>
		</g>
	</g>
	<g>
		<path class="st3" d="M16.25,30.81c2.83-5.67,2.43-4.1,4.42-3.07c5.57,2.88,9.62,0.58,18.92,0.58c9.3,0,12.68,0.38,16.9-0.58
			c2.16-0.49,5.19-1.92,7.2,2.02c2.08,4.05,5.95,6.92,3.17,10.66c-2.04,2.74-6.66,1.34-10.08,0.29c-6.24-1.92-30.44-0.1-37.84,2.3
			c-2.9,0.94-2.79-0.96-4.13-3.36C12.87,36.17,15.26,32.79,16.25,30.81z"/>
		<path class="st3" d="M34.3,31.86c0-4.55-0.48-10.56-3.26-13.15c-1.54-1.43-2.78-2.59-0.29-2.79c4.99-0.39,6.43-5.09,13.06-2.4
			c4.12,1.67,6,2.52,5.38,6.15c-0.57,3.36-2.88,4.22-3.36,9.89c-0.32,3.75-1.97,15.2,3.17,17.58c5.14,2.37,10.28,2.59,14.12-1.06
			c2.34-2.22,2.69-1.63,2.02,2.02c-0.75,4.1-2.88,10.56-7.87,13.93c-3.55,2.39-10.08,1.34-14.89-2.79
			c-7.78,8.36-19.39,4.55-23.82-5.09c-2.69-5.86-2.88-4.92,1.54-3.94c3.56,0.79,6.88,0.72,9.89-0.87
			C34.14,47.17,34.3,43.54,34.3,31.86z"/>
	</g>
</g>
</svg>
